<?xml version="1.0" standalone="no"?>
<!DOCTYPE svg PUBLIC "-//W3C//DTD SVG 1.1//EN"
"http://www.w3.org/Graphics/SVG/1.1/DTD/svg11.dtd">

<svg width="798" height="560" view_box="0 0 798 560"
xmlns="http://www.w3.org/2000/svg"
xmlns:link="http://www.w3.org/1999/xlink">\n\n<desc>Généré par Mocodo 2.3.7 le Sat, 18 Jun 2022 11:18:01</desc>

<rect id="frame" x="0" y="0" width="798" height="560" fill="#f5f5f5" stroke="none" stroke-width="0"/>

<!-- Association APPARTIENT -->
<line x1="368" y1="449" x2="61" y2="297" stroke="#35978f" stroke-width="2"/>
<text x="296" y="439.353132839" fill="#8c510a" font-family="Verdana" font-size="12">1,1</text>
<line x1="61" y1="128" x2="61" y2="297" stroke="#35978f" stroke-width="2"/>
<text x="66.0" y="187" fill="#8c510a" font-family="Verdana" font-size="12">0,N</text>
<g id="association-APPARTIENT">
	<path d="M 93 272 a 14 14 90 0 1 14 14 V 297 h -92 V 286 a 14 14 90 0 1 14 -14" fill="#80cdc1" stroke="#80cdc1" stroke-width="0"/>
	<path d="M 107 297.0 v 11 a 14 14 90 0 1 -14 14 H 29 a 14 14 90 0 1 -14 -14 V 297.0 H 92" fill="#c7eae5" stroke="#c7eae5" stroke-width="0"/>
	<rect x="15" y="272" width="92" height="50" fill="none" rx="14" stroke="#35978f" stroke-width="2"/>
	<line x1="15" y1="297" x2="107" y2="297" stroke="#35978f" stroke-width="1"/>
	<text x="22" y="289.7" fill="#000000" font-family="Verdana" font-size="12">APPARTIENT</text>
</g>

<!-- Association PARTICIPER -->
<line x1="368" y1="128" x2="212" y2="297" stroke="#35978f" stroke-width="2"/>
<text x="284" y="188.421323449" fill="#8c510a" font-family="Verdana" font-size="12">0,N</text>
<line x1="368" y1="449" x2="212" y2="297" stroke="#35978f" stroke-width="2"/>
<text x="295" y="414.238345113" fill="#8c510a" font-family="Verdana" font-size="12">1,N</text>
<g id="association-PARTICIPER">
	<path d="M 242 272 a 14 14 90 0 1 14 14 V 297 h -88 V 286 a 14 14 90 0 1 14 -14" fill="#80cdc1" stroke="#80cdc1" stroke-width="0"/>
	<path d="M 256 297.0 v 11 a 14 14 90 0 1 -14 14 H 182 a 14 14 90 0 1 -14 -14 V 297.0 H 88" fill="#c7eae5" stroke="#c7eae5" stroke-width="0"/>
	<rect x="168" y="272" width="88" height="50" fill="none" rx="14" stroke="#35978f" stroke-width="2"/>
	<line x1="168" y1="297" x2="256" y2="297" stroke="#35978f" stroke-width="1"/>
	<text x="175" y="289.7" fill="#000000" font-family="Verdana" font-size="12">PARTICIPER</text>
</g>

<!-- Association CONTIENT_COMMENTAIRE -->
<line x1="719" y1="449" x2="535" y2="449" stroke="#35978f" stroke-width="2"/>
<text x="630" y="466.0" fill="#8c510a" font-family="Verdana" font-size="12">1,1</text>
<line x1="368" y1="449" x2="535" y2="449" stroke="#35978f" stroke-width="2"/>
<text x="419" y="466.0" fill="#8c510a" font-family="Verdana" font-size="12">0,N</text>
<g id="association-CONTIENT_COMMENTAIRE">
	<path d="M 610 424 a 14 14 90 0 1 14 14 V 449 h -178 V 438 a 14 14 90 0 1 14 -14" fill="#80cdc1" stroke="#80cdc1" stroke-width="0"/>
	<path d="M 624 449.0 v 11 a 14 14 90 0 1 -14 14 H 460 a 14 14 90 0 1 -14 -14 V 449.0 H 178" fill="#c7eae5" stroke="#c7eae5" stroke-width="0"/>
	<rect x="446" y="424" width="178" height="50" fill="none" rx="14" stroke="#35978f" stroke-width="2"/>
	<line x1="446" y1="449" x2="624" y2="449" stroke="#35978f" stroke-width="1"/>
	<text x="453" y="441.7" fill="#000000" font-family="Verdana" font-size="12">CONTIENT_COMMENTAIRE</text>
</g>

<!-- Association CREER_CATEGORIE -->
<line x1="368" y1="128" x2="212" y2="128" stroke="#35978f" stroke-width="2"/>
<text x="284" y="120.0" fill="#8c510a" font-family="Verdana" font-size="12">0,N</text>
<line x1="61" y1="128" x2="212" y2="128" stroke="#35978f" stroke-width="2"/>
<text x="118" y="145.0" fill="#8c510a" font-family="Verdana" font-size="12">0,1</text>
<g id="association-CREER_CATEGORIE">
	<path d="M 265 103 a 14 14 90 0 1 14 14 V 128 h -134 V 117 a 14 14 90 0 1 14 -14" fill="#80cdc1" stroke="#80cdc1" stroke-width="0"/>
	<path d="M 279 128.0 v 11 a 14 14 90 0 1 -14 14 H 159 a 14 14 90 0 1 -14 -14 V 128.0 H 134" fill="#c7eae5" stroke="#c7eae5" stroke-width="0"/>
	<rect x="145" y="103" width="134" height="50" fill="none" rx="14" stroke="#35978f" stroke-width="2"/>
	<line x1="145" y1="128" x2="279" y2="128" stroke="#35978f" stroke-width="1"/>
	<text x="152" y="120.7" fill="#000000" font-family="Verdana" font-size="12">CREER_CATEGORIE</text>
</g>

<!-- Association ECRIT -->
<line x1="719" y1="449" x2="535" y2="297" stroke="#35978f" stroke-width="2"/>
<text x="667.034976571" y="399" fill="#8c510a" font-family="Verdana" font-size="12">1,1</text>
<line x1="368" y1="128" x2="535" y2="297" stroke="#35978f" stroke-width="2"/>
<text x="430" y="184.694112546" fill="#8c510a" font-family="Verdana" font-size="12">0,N</text>
<g id="association-ECRIT">
	<path d="M 547 272 a 14 14 90 0 1 14 14 V 297 h -52 V 286 a 14 14 90 0 1 14 -14" fill="#80cdc1" stroke="#80cdc1" stroke-width="0"/>
	<path d="M 561 297.0 v 11 a 14 14 90 0 1 -14 14 H 523 a 14 14 90 0 1 -14 -14 V 297.0 H 52" fill="#c7eae5" stroke="#c7eae5" stroke-width="0"/>
	<rect x="509" y="272" width="52" height="50" fill="none" rx="14" stroke="#35978f" stroke-width="2"/>
	<line x1="509" y1="297" x2="561" y2="297" stroke="#35978f" stroke-width="1"/>
	<text x="516" y="289.7" fill="#000000" font-family="Verdana" font-size="12">ECRIT</text>
</g>

<!-- Association CONTIENT_NIVEAU -->
<line x1="368" y1="449" x2="212" y2="449" stroke="#35978f" stroke-width="2"/>
<text x="296" y="466.0" fill="#8c510a" font-family="Verdana" font-size="12">1,1</text>
<line x1="61" y1="449" x2="212" y2="449" stroke="#35978f" stroke-width="2"/>
<text x="110" y="466.0" fill="#8c510a" font-family="Verdana" font-size="12">0,N</text>
<g id="association-CONTIENT_NIVEAU">
	<path d="M 265 424 a 14 14 90 0 1 14 14 V 449 h -134 V 438 a 14 14 90 0 1 14 -14" fill="#80cdc1" stroke="#80cdc1" stroke-width="0"/>
	<path d="M 279 449.0 v 11 a 14 14 90 0 1 -14 14 H 159 a 14 14 90 0 1 -14 -14 V 449.0 H 134" fill="#c7eae5" stroke="#c7eae5" stroke-width="0"/>
	<rect x="145" y="424" width="134" height="50" fill="none" rx="14" stroke="#35978f" stroke-width="2"/>
	<line x1="145" y1="449" x2="279" y2="449" stroke="#35978f" stroke-width="1"/>
	<text x="152" y="441.7" fill="#000000" font-family="Verdana" font-size="12">CONTIENT_NIVEAU</text>
</g>

<!-- Association CREER_ACTIVITE -->
<line x1="368" y1="128" x2="368" y2="297" stroke="#35978f" stroke-width="2"/>
<text x="373.0" y="264" fill="#8c510a" font-family="Verdana" font-size="12">0,N</text>
<line x1="368" y1="449" x2="368" y2="297" stroke="#35978f" stroke-width="2"/>
<text x="373.0" y="339" fill="#8c510a" font-family="Verdana" font-size="12">1,1</text>
<g id="association-CREER_ACTIVITE">
	<path d="M 414 272 a 14 14 90 0 1 14 14 V 297 h -120 V 286 a 14 14 90 0 1 14 -14" fill="#80cdc1" stroke="#80cdc1" stroke-width="0"/>
	<path d="M 428 297.0 v 11 a 14 14 90 0 1 -14 14 H 322 a 14 14 90 0 1 -14 -14 V 297.0 H 120" fill="#c7eae5" stroke="#c7eae5" stroke-width="0"/>
	<rect x="308" y="272" width="120" height="50" fill="none" rx="14" stroke="#35978f" stroke-width="2"/>
	<line x1="308" y1="297" x2="428" y2="297" stroke="#35978f" stroke-width="1"/>
	<text x="315" y="289.7" fill="#000000" font-family="Verdana" font-size="12">CREER_ACTIVITE</text>
</g>

<!-- Association ATTACHER -->
<line x1="368" y1="128" x2="535" y2="128" stroke="#35978f" stroke-width="2"/>
<text x="430" y="120.0" fill="#8c510a" font-family="Verdana" font-size="12">1,1</text>
<line x1="719" y1="128" x2="535" y2="128" stroke="#35978f" stroke-width="2"/>
<text x="626" y="145.0" fill="#8c510a" font-family="Verdana" font-size="12">1,1</text>
<g id="association-ATTACHER">
	<path d="M 561 103 a 14 14 90 0 1 14 14 V 128 h -80 V 117 a 14 14 90 0 1 14 -14" fill="#80cdc1" stroke="#80cdc1" stroke-width="0"/>
	<path d="M 575 128.0 v 11 a 14 14 90 0 1 -14 14 H 509 a 14 14 90 0 1 -14 -14 V 128.0 H 80" fill="#c7eae5" stroke="#c7eae5" stroke-width="0"/>
	<rect x="495" y="103" width="80" height="50" fill="none" rx="14" stroke="#35978f" stroke-width="2"/>
	<line x1="495" y1="128" x2="575" y2="128" stroke="#35978f" stroke-width="1"/>
	<text x="502" y="120.7" fill="#000000" font-family="Verdana" font-size="12">ATTACHER</text>
</g>

<!-- Entity UTILISATEUR -->
<g id="entity-UTILISATEUR">
	<g id="frame-UTILISATEUR">
		<rect x="311" y="9" width="114" height="25" fill="#dfc27d" stroke="#dfc27d" stroke-width="0"/>
		<rect x="311" y="34.0" width="114" height="213" fill="#f6e8c3" stroke="#f6e8c3" stroke-width="0"/>
		<rect x="311" y="9" width="114" height="238" fill="none" stroke="#bf812d" stroke-width="2"/>
		<line x1="311" y1="34" x2="425" y2="34" stroke="#bf812d" stroke-width="1"/>
	</g>
	<text x="326" y="26.7" fill="#000000" font-family="Verdana" font-size="12">UTILISATEUR</text>
	<text x="316" y="51.7" fill="#000000" font-family="Verdana" font-size="12">code_utilisateur</text>
	<line x1="316" y1="54" x2="413" y2="54" stroke="#000000" stroke-width="1"/>
	<text x="316" y="68.7" fill="#000000" font-family="Verdana" font-size="12">email</text>
	<text x="316" y="85.7" fill="#000000" font-family="Verdana" font-size="12">mot_de_passe</text>
	<text x="316" y="102.7" fill="#000000" font-family="Verdana" font-size="12">nom</text>
	<text x="316" y="119.7" fill="#000000" font-family="Verdana" font-size="12">prénom</text>
	<text x="316" y="136.8" fill="#000000" font-family="Verdana" font-size="12">photo</text>
	<text x="316" y="153.8" fill="#000000" font-family="Verdana" font-size="12">présentation</text>
	<text x="316" y="170.8" fill="#000000" font-family="Verdana" font-size="12">adresse</text>
	<text x="316" y="187.8" fill="#000000" font-family="Verdana" font-size="12">code_postal</text>
	<text x="316" y="204.8" fill="#000000" font-family="Verdana" font-size="12">ville</text>
	<text x="316" y="221.8" fill="#000000" font-family="Verdana" font-size="12">pays</text>
	<text x="316" y="238.8" fill="#000000" font-family="Verdana" font-size="12">coordonnés_GPS</text>
</g>

<!-- Entity CATEGORIE -->
<g id="entity-CATEGORIE">
	<g id="frame-CATEGORIE">
		<rect x="9" y="86" width="104" height="25" fill="#dfc27d" stroke="#dfc27d" stroke-width="0"/>
		<rect x="9" y="111.0" width="104" height="59" fill="#f6e8c3" stroke="#f6e8c3" stroke-width="0"/>
		<rect x="9" y="86" width="104" height="84" fill="none" stroke="#bf812d" stroke-width="2"/>
		<line x1="9" y1="111" x2="113" y2="111" stroke="#bf812d" stroke-width="1"/>
	</g>
	<text x="25" y="103.7" fill="#000000" font-family="Verdana" font-size="12">CATEGORIE</text>
	<text x="14" y="128.8" fill="#000000" font-family="Verdana" font-size="12">code_categorie</text>
	<line x1="14" y1="131" x2="107" y2="131" stroke="#000000" stroke-width="1"/>
	<text x="14" y="145.8" fill="#000000" font-family="Verdana" font-size="12">nom</text>
	<text x="14" y="162.8" fill="#000000" font-family="Verdana" font-size="12">balise_picto</text>
</g>

<!-- Entity NIVEAU -->
<g id="entity-NIVEAU">
	<g id="frame-NIVEAU">
		<rect x="17" y="415" width="88" height="25" fill="#dfc27d" stroke="#dfc27d" stroke-width="0"/>
		<rect x="17" y="440.0" width="88" height="43" fill="#f6e8c3" stroke="#f6e8c3" stroke-width="0"/>
		<rect x="17" y="415" width="88" height="68" fill="none" stroke="#bf812d" stroke-width="2"/>
		<line x1="17" y1="440" x2="105" y2="440" stroke="#bf812d" stroke-width="1"/>
	</g>
	<text x="37" y="432.7" fill="#000000" font-family="Verdana" font-size="12">NIVEAU</text>
	<text x="22" y="457.8" fill="#000000" font-family="Verdana" font-size="12">code_niveau</text>
	<line x1="22" y1="460" x2="99" y2="460" stroke="#000000" stroke-width="1"/>
	<text x="22" y="474.8" fill="#000000" font-family="Verdana" font-size="12">nom</text>
</g>

<!-- Entity COMMENTAIRE -->
<g id="entity-COMMENTAIRE">
	<g id="frame-COMMENTAIRE">
		<rect x="656" y="407" width="126" height="25" fill="#dfc27d" stroke="#dfc27d" stroke-width="0"/>
		<rect x="656" y="432.0" width="126" height="59" fill="#f6e8c3" stroke="#f6e8c3" stroke-width="0"/>
		<rect x="656" y="407" width="126" height="84" fill="none" stroke="#bf812d" stroke-width="2"/>
		<line x1="656" y1="432" x2="782" y2="432" stroke="#bf812d" stroke-width="1"/>
	</g>
	<text x="673" y="424.7" fill="#000000" font-family="Verdana" font-size="12">COMMENTAIRE</text>
	<text x="661" y="449.8" fill="#000000" font-family="Verdana" font-size="12">code_commentaire</text>
	<line x1="661" y1="452" x2="777" y2="452" stroke="#000000" stroke-width="1"/>
	<text x="661" y="466.8" fill="#000000" font-family="Verdana" font-size="12">contenue</text>
	<text x="661" y="483.8" fill="#000000" font-family="Verdana" font-size="12">photo</text>
</g>

<!-- Entity ACTIVITE -->
<g id="entity-ACTIVITE">
	<g id="frame-ACTIVITE">
		<rect x="322" y="347" width="92" height="25" fill="#dfc27d" stroke="#dfc27d" stroke-width="0"/>
		<rect x="322" y="372.0" width="92" height="179" fill="#f6e8c3" stroke="#f6e8c3" stroke-width="0"/>
		<rect x="322" y="347" width="92" height="204" fill="none" stroke="#bf812d" stroke-width="2"/>
		<line x1="322" y1="372" x2="414" y2="372" stroke="#bf812d" stroke-width="1"/>
	</g>
	<text x="339" y="364.7" fill="#000000" font-family="Verdana" font-size="12">ACTIVITE</text>
	<text x="327" y="389.7" fill="#000000" font-family="Verdana" font-size="12">code_activite</text>
	<line x1="327" y1="392" x2="408" y2="392" stroke="#000000" stroke-width="1"/>
	<text x="327" y="406.7" fill="#000000" font-family="Verdana" font-size="12">nom</text>
	<text x="327" y="423.7" fill="#000000" font-family="Verdana" font-size="12">description</text>
	<text x="327" y="440.7" fill="#000000" font-family="Verdana" font-size="12">participant</text>
	<text x="327" y="457.8" fill="#000000" font-family="Verdana" font-size="12">date</text>
	<text x="327" y="474.8" fill="#000000" font-family="Verdana" font-size="12">adresse</text>
	<text x="327" y="491.8" fill="#000000" font-family="Verdana" font-size="12">code_postal</text>
	<text x="327" y="508.8" fill="#000000" font-family="Verdana" font-size="12">ville</text>
	<text x="327" y="525.8" fill="#000000" font-family="Verdana" font-size="12">pays</text>
	<text x="327" y="542.8" fill="#000000" font-family="Verdana" font-size="12">geo_repere</text>
</g>

<!-- Entity META_UTILISATEUR -->
<g id="entity-META_UTILISATEUR">
	<g id="frame-META_UTILISATEUR">
		<rect x="652" y="86" width="134" height="25" fill="#dfc27d" stroke="#dfc27d" stroke-width="0"/>
		<rect x="652" y="111.0" width="134" height="59" fill="#f6e8c3" stroke="#f6e8c3" stroke-width="0"/>
		<rect x="652" y="86" width="134" height="84" fill="none" stroke="#bf812d" stroke-width="2"/>
		<line x1="652" y1="111" x2="786" y2="111" stroke="#bf812d" stroke-width="1"/>
	</g>
	<text x="657" y="103.7" fill="#000000" font-family="Verdana" font-size="12">META_UTILISATEUR</text>
	<text x="657" y="128.8" fill="#000000" font-family="Verdana" font-size="12">code_meta</text>
	<line x1="657" y1="131" x2="725" y2="131" stroke="#000000" stroke-width="1"/>
	<text x="657" y="145.8" fill="#000000" font-family="Verdana" font-size="12">cookie</text>
	<text x="657" y="162.8" fill="#000000" font-family="Verdana" font-size="12">géolocalisation</text>
</g>

<!-- Entity LISTE_NOIRE_JETON -->
<g id="entity-LISTE_NOIRE_JETON">
	<g id="frame-LISTE_NOIRE_JETON">
		<rect x="649" y="263" width="140" height="25" fill="#dfc27d" stroke="#dfc27d" stroke-width="0"/>
		<rect x="649" y="288.0" width="140" height="43" fill="#f6e8c3" stroke="#f6e8c3" stroke-width="0"/>
		<rect x="649" y="263" width="140" height="68" fill="none" stroke="#bf812d" stroke-width="2"/>
		<line x1="649" y1="288" x2="789" y2="288" stroke="#bf812d" stroke-width="1"/>
	</g>
	<text x="654" y="280.7" fill="#000000" font-family="Verdana" font-size="12">LISTE_NOIRE_JETON</text>
	<text x="654" y="305.8" fill="#000000" font-family="Verdana" font-size="12">code_jeton</text>
	<line x1="654" y1="308" x2="722" y2="308" stroke="#000000" stroke-width="1"/>
	<text x="654" y="322.8" fill="#000000" font-family="Verdana" font-size="12">jeton</text>
</g>
</svg>